# xmcd
#
# Track frame offsets: 
#        150
#        24246
#        55158
#        82639
#        110345
#        129783
#        158950
#        193940
#        227908
#        252451
#
# Disc length: 3573 seconds
#
# Revision: 0
# Processed by: cddbd v1.5.2PL0 Copyright (c) Steve Scherf et al.
# Submitted via: ExactAudioCopy v1.0b3
#
DISCID=750df30a
DTITLE=Crustacea - 未だ降りつもる雪
DYEAR=1900
DGENRE=
TTITLE0=かけがえのないもの
TTITLE1=狼少年
TTITLE2=Tomorrow
TTITLE3=コイン伯爵
TTITLE4=会いたくて
TTITLE5=for you
TTITLE6=逃避（三部作二部）
TTITLE7=樹海（三部作一部）
TTITLE8=未だ降りつもる雪（三部作三部）
TTITLE9=今日も明日の風が吹く
EXTD=
EXTT0=
EXTT1=
EXTT2=
EXTT3=
EXTT4=
EXTT5=
EXTT6=
EXTT7=
EXTT8=
EXTT9=
PLAYORDER=
